Coordinates
version=1
nRows=26
nColumns=24
inDegrees=yes

Units are S.I. units (second, meters, Newtons, ...)
Angles are in degrees.

endheader
time	pelvis_tilt	pelvis_list	pelvis_rotation	pelvis_tx	pelvis_ty	pelvis_tz	hip_flexion_r	hip_adduction_r	hip_rotation_r	knee_angle_r	ankle_angle_r	subtalar_angle_r	mtp_angle_r	hip_flexion_l	hip_adduction_l	hip_rotation_l	knee_angle_l	ankle_angle_l	subtalar_angle_l	mtp_angle_l	lumbar_extension	lumbar_bending	lumbar_rotation
      5.24000000	      1.15712533	      2.44795133	     12.89016382	     -0.98149514	      0.67839122	      0.25479593	     23.16040602	     -1.32508392	      3.17394524	     -3.89903931	      6.71537567	    -19.09230698	      0.00000000	    -20.70448029	      4.92868041	     18.88614889	    -21.58276416	     13.07721163	      3.19108530	      0.00000000	    -23.76231232	     -1.39972461	     -8.19660538
      5.25000000	      0.89421697	      1.49940339	     13.08934219	     -0.96538803	      0.67792918	      0.25464701	     24.65856042	     -0.08964620	      2.12088757	     -7.94231015	      6.74167833	    -17.94342129	      0.00000000	    -18.59117720	      3.88021150	     15.80849305	    -26.07882874	     11.03274044	      5.84850644	      0.00000000	    -23.11451744	     -0.26392534	     -7.80662849
      5.26000000	      0.63572103	      0.55167843	     13.22916976	     -0.94931093	      0.67746285	      0.25437465	     26.08282389	      1.09366852	      1.08565828	    -11.91868025	      6.73718478	    -16.66116054	      0.00000000	    -16.24027983	      2.81858069	     13.23368764	    -30.76464768	      8.18604250	      7.33567012	      0.00000000	    -22.44882944	      0.89187479	     -7.27898407
      5.27000000	      0.34636069	     -0.42484215	     13.37307179	     -0.93343907	      0.67692781	      0.25391764	     27.41975438	      2.23892656	      0.23758443	    -15.69001197	      6.60129716	    -15.58700679	      0.00000000	    -13.60721818	      1.76020670	     11.23970984	    -35.60158424	      4.83912174	      7.59658302	      0.00000000	    -21.76986175	      2.13766069	     -6.86002751
      5.28000000	      0.22244075	     -1.41522975	     13.57393313	     -0.91782864	      0.67655726	      0.25346888	     28.33562162	      3.41922435	     -0.32099349	    -18.98565551	      6.40463583	    -14.96238384	      0.00000000	    -10.89068834	      0.61404582	      9.66350418	    -40.54292777	      1.32443997	      7.13566908	      0.00000000	    -21.33166198	      3.43685943	     -6.47843220
      5.29000000	      0.11337169	     -2.31335277	     13.89623962	     -0.90259063	      0.67630676	      0.25292936	     28.95477392	      4.47653594	     -0.75285635	    -21.76105300	      6.40257783	    -14.66551139	      0.00000000	     -7.97704925	     -0.40497985	      8.63565647	    -45.47128544	     -2.37634850	      5.69318548	      0.00000000	    -20.97522260	      4.62473122	     -6.26881164
      5.30000000	      0.14295709	     -3.27030079	     14.26812210	     -0.88763355	      0.67618936	      0.25246769	     29.15969851	      5.63426047	     -1.15781042	    -23.96191199	      6.69625755	    -14.60613329	      0.00000000	     -5.02430956	     -1.48839272	      7.97004047	    -50.32423717	     -5.57513422	      3.84334534	      0.00000000	    -20.79031475	      5.86843370	     -5.98347669
      5.31000000	      0.16680751	     -4.24500861	     14.64830795	     -0.87299954	      0.67616492	      0.25203527	     29.10707769	      6.81349493	     -1.57558486	    -25.61093900	      7.23922074	    -14.64763396	      0.00000000	     -1.93420053	     -2.48510990	      7.69180977	    -55.01459083	     -8.09803953	      1.76224497	      0.00000000	    -20.60547824	      7.09250672	     -5.68516196
      5.32000000	      0.28556274	     -5.22581815	     15.01617380	     -0.85856184	      0.67646179	      0.25161322	     28.61016636	      8.05537523	     -1.90920594	    -26.59116913	      8.06746085	    -14.77898135	      0.00000000	      1.10169549	     -3.37519136	      7.76831985	    -59.42000363	     -9.77118624	     -0.31794037	      0.00000000	    -20.52082547	      8.32817985	     -5.24955813
      5.33000000	      0.30681831	     -6.16093555	     15.36208850	     -0.84446785	      0.67683157	      0.25131230	     27.99323800	      9.23511954	     -2.32955392	    -27.11845785	      9.08083185	    -14.96135475	      0.00000000	      4.29909428	     -4.08090229	      8.05257013	    -63.55262639	    -10.41198273	     -2.26533694	      0.00000000	    -20.34200516	      9.40262055	     -4.86466767
      5.34000000	      0.32693965	     -7.04473874	     15.59556579	     -0.83050037	      0.67755955	      0.25114374	     27.05423265	     10.42362040	     -2.62661869	    -27.06625819	     10.19749366	    -15.04725754	      0.00000000	      7.44409086	     -4.63032036	      8.43019130	    -67.25775827	    -10.12241618	     -3.86442872	      0.00000000	    -20.16905641	     10.33188247	     -4.31099250
      5.35000000	      0.41914491	     -7.80676134	     15.69533952	     -0.81655041	      0.67879456	      0.25104577	     25.72451185	     11.58410931	     -2.71314739	    -26.53469250	     11.34118614	    -15.07236222	      0.00000000	     10.34916886	     -4.98772802	      8.80764598	    -70.40376614	     -9.05154576	     -5.19205143	      0.00000000	    -20.09429965	     11.09785459	     -3.63306181
      5.36000000	      0.53078455	     -8.41038821	     15.67049390	     -0.80256564	      0.68049724	      0.25102652	     24.06724973	     12.65228733	     -2.56914069	    -25.58669964	     12.42955964	    -15.01573299	      0.00000000	     13.03568702	     -5.14895731	      9.11649767	    -72.94545488	     -7.43650935	     -6.25831619	      0.00000000	    -20.05250258	     11.63355679	     -2.90810957
      5.37000000	      0.67256356	     -8.79845126	     15.47749369	     -0.78856271	      0.68267410	      0.25109450	     22.11648694	     13.56297082	     -2.17463020	    -24.36536813	     13.39339843	    -14.81330328	      0.00000000	     15.43978547	     -5.10723660	      9.22346235	    -74.83258603	     -5.58589753	     -7.25820432	      0.00000000	    -20.10781435	     11.88263301	     -2.12721092
      5.38000000	      0.74309144	     -9.02962057	     15.24446638	     -0.77452897	      0.68504686	      0.25120999	     20.02059899	     14.29959300	     -1.58883842	    -22.89409583	     14.23959823	    -14.58170730	      0.00000000	     17.74851888	     -4.90760455	      9.26605865	    -76.15254067	     -3.68710131	     -7.98723592	      0.00000000	    -20.06919553	     11.91045854	     -1.47513700
      5.39000000	      0.73560768	     -9.07318033	     14.90897379	     -0.76041283	      0.68758435	      0.25141256	     17.80769075	     14.84203407	     -0.69491311	    -21.24623229	     14.76327739	    -14.49305432	      0.00000000	     19.88222788	     -4.52982319	      9.21501242	    -76.86774977	     -1.66911514	     -8.28639176	      0.00000000	    -19.94785602	     11.65935625	     -0.75560588
      5.40000000	      0.66610640	     -8.89151346	     14.45480855	     -0.74631479	      0.69019233	      0.25170162	     15.51339845	     15.13351556	      0.51904938	    -19.52398878	     15.13012209	    -14.47050618	      0.00000000	     21.83624385	     -3.98587061	      8.93783882	    -76.99435029	      0.04550846	     -8.65842455	      0.00000000	    -19.81808796	     11.10766856	     -0.14198653
      5.41000000	      0.52802561	     -8.53613842	     13.94319930	     -0.73223172	      0.69273676	      0.25201816	     13.19361182	     15.18641114	      1.91473207	    -17.74405018	     15.32275152	    -14.55804049	      0.00000000	     23.64415086	     -3.31708139	      8.52755448	    -76.58328412	      1.48338073	     -9.00539538	      0.00000000	    -19.63445201	     10.33256973	      0.40358892
      5.42000000	      0.38107632	     -8.09669954	     13.35684135	     -0.71821362	      0.69509671	      0.25242293	     10.81604598	     15.11398640	      3.62959312	    -15.89158375	     15.30296279	    -14.92457007	      0.00000000	     25.29557919	     -2.66377143	      7.98628768	    -75.71497382	      2.65787012	     -9.32822144	      0.00000000	    -19.48165400	      9.45492479	      0.98528660
      5.43000000	      0.20991617	     -7.53507223	     12.83869137	     -0.70423799	      0.69724232	      0.25274423	      8.41099079	     14.83096403	      5.44853817	    -13.95563888	     15.00276175	    -15.69247891	      0.00000000	     26.77181374	     -1.90144662	      7.48144461	    -74.35827233	      3.68959901	     -9.55941135	      0.00000000	    -19.31411998	      8.45447745	      1.27696787
      5.44000000	     -0.22201360	     -6.92682007	     12.08978854	     -0.69045922	      0.69876990	      0.25319443	      6.43748865	     14.35452391	      7.03815362	    -12.29258662	     15.05948091	    -15.84878327	      0.00000000	     28.34880404	     -1.15567951	      6.78933703	    -72.58795576	      4.56178846	     -9.72163826	      0.00000000	    -18.90595453	      7.32810354	      1.78444907
      5.45000000	     -0.50345936	     -6.30439315	     11.43038688	     -0.67671962	      0.70010523	      0.25357420	      4.23657447	     13.83801075	      9.04325145	    -10.45331929	     14.59718457	    -16.85438696	      0.00000000	     29.60421671	     -0.47142675	      6.18728535	    -70.38865297	      5.33104212	     -9.84912878	      0.00000000	    -18.69471676	      6.26636305	      1.98846615
      5.46000000	     -1.01328586	     -5.69934594	     10.63759008	     -0.66319047	      0.70079889	      0.25396684	      2.51664777	     13.21280016	     10.47322446	     -8.94850665	     14.59014183	    -17.10045559	      0.00000000	     30.94313012	      0.17617204	      5.59023146	    -67.79308326	      5.97278556	     -9.87350519	      0.00000000	    -18.26621134	      5.19143289	      2.45721581
      5.47000000	     -1.43271036	     -5.13420410	      9.86160717	     -0.64975070	      0.70118375	      0.25429350	      0.76506174	     12.59464693	     12.05259530	     -7.49076646	     14.38550350	    -17.66836998	      0.00000000	     32.01356249	      0.72490571	      5.10663918	    -64.78223323	      6.57540045	     -9.90204780	      0.00000000	    -17.97571221	      4.22954274	      2.77681726
      5.48000000	     -1.89039259	     -4.65340926	      9.08272676	     -0.63643418	      0.70107811	      0.25460459	     -0.77240325	     12.02892029	     13.34422533	     -6.23874110	     14.32217771	    -18.10343510	      0.00000000	     32.96576927	      1.15583909	      4.76363222	    -61.37557827	      7.18011629	     -9.91371503	      0.00000000	    -17.67276839	      3.38875497	      3.03672259
      5.49000000	     -2.33644929	     -4.26000811	      8.32007975	     -0.62321102	      0.70060161	      0.25484718	     -2.18766447	     11.52851935	     14.49026054	     -5.15230360	     14.31421404	    -18.43369078	      0.00000000	     33.72890951	      1.47798963	      4.60635199	    -57.56177426	      7.71837535	     -9.96977527	      0.00000000	    -17.41572454	      2.68716977	      3.26794834
